ffmpeg started on 2016-11-29 at 15:11:52
Report written to "Output/x264/results/ffmpeg/old_town_cross_2160p50veryfast2500k.log"
Command line:
Tools/ffmpeg/ffmpeg -benchmark -y -i Input/y4m/old_town_cross_2160p50.y4m -c:v libx264 -preset veryfast -b:v 2500k -an Output/x264/encoded/old_town_cross_2160p50veryfast2500k.mkv
ffmpeg version N-82227-gdb23fde Copyright (c) 2000-2016 the FFmpeg developers
  built with gcc 5.4.0 (Ubuntu 5.4.0-6ubuntu1~16.04.2) 20160609
  configuration: --prefix=/home/jaroslav/ffmpeg_build --pkg-config-flags=--static --extra-cflags=-I/home/jaroslav/ffmpeg_build/include --extra-ldflags=-L/home/jaroslav/ffmpeg_build/lib --bindir=/home/jaroslav/bin --enable-gpl --enable-libass --enable-libfdk-aac --enable-libfreetype --enable-libmp3lame --enable-libopus --enable-libtheora --enable-libvorbis --enable-libvpx --enable-libx264 --enable-libx265 --enable-nvenc --enable-libmfx --enable-libxvid --enable-libgsm --enable-libopencore-amrnb --enable-version3 --enable-nonfree
  libavutil      55. 35.100 / 55. 35.100
  libavcodec     57. 66.101 / 57. 66.101
  libavformat    57. 57.100 / 57. 57.100
  libavdevice    57.  2.100 / 57.  2.100
  libavfilter     6. 66.100 /  6. 66.100
  libswscale      4.  3.100 /  4.  3.100
  libswresample   2.  4.100 /  2.  4.100
  libpostproc    54.  2.100 / 54.  2.100
Input #0, yuv4mpegpipe, from 'Input/y4m/old_town_cross_2160p50.y4m':
  Duration: 00:00:10.00, start: 0.000000, bitrate: 4976642 kb/s
    Stream #0:0: Video: rawvideo (I420 / 0x30323449), yuv420p(progressive), 3840x2160, SAR 1:1 DAR 16:9, 50 fps, 50 tbr, 50 tbn, 50 tbc
[libx264 @ 0x40fc120] using SAR=1/1
[libx264 @ 0x40fc120] using cpu capabilities: MMX2 SSE2Fast SSSE3 SSE4.2 AVX FMA3 AVX2 LZCNT BMI2
[libx264 @ 0x40fc120] profile High, level 5.2
[libx264 @ 0x40fc120] 264 - core 148 - H.264/MPEG-4 AVC codec - Copyleft 2003-2016 - http://www.videolan.org/x264.html - options: cabac=1 ref=1 deblock=1:0:0 analyse=0x3:0x113 me=hex subme=2 psy=1 psy_rd=1.00:0.00 mixed_ref=0 me_range=16 chroma_me=1 trellis=0 8x8dct=1 cqm=0 deadzone=21,11 fast_pskip=1 chroma_qp_offset=0 threads=6 lookahead_threads=2 sliced_threads=0 nr=0 decimate=1 interlaced=0 bluray_compat=0 constrained_intra=0 bframes=3 b_pyramid=2 b_adapt=1 b_bias=0 direct=1 weightb=1 open_gop=0 weightp=1 keyint=250 keyint_min=25 scenecut=40 intra_refresh=0 rc_lookahead=10 rc=abr mbtree=1 bitrate=2500 ratetol=1.0 qcomp=0.60 qpmin=0 qpmax=69 qpstep=4 ip_ratio=1.40 aq=1:1.00
Output #0, matroska, to 'Output/x264/encoded/old_town_cross_2160p50veryfast2500k.mkv':
  Metadata:
    encoder         : Lavf57.57.100
    Stream #0:0: Video: h264 (libx264) (H264 / 0x34363248), yuv420p, 3840x2160 [SAR 1:1 DAR 16:9], q=-1--1, 2500 kb/s, 50 fps, 1k tbn, 50 tbc
    Metadata:
      encoder         : Lavc57.66.101 libx264
    Side data:
      cpb: bitrate max/min/avg: 0/0/2500000 buffer size: 0 vbv_delay: -1
Stream mapping:
  Stream #0:0 -> #0:0 (rawvideo (native) -> h264 (libx264))
Press [q] to stop, [?] for help
frame=   22 fps=0.0 q=46.0 size=       1kB time=-00:00:00.01 bitrate=N/A speed=N/A    frame=   38 fps= 34 q=45.0 size=       1kB time=00:00:00.30 bitrate=  19.5kbits/s speed=0.272x    frame=   54 fps= 33 q=43.0 size=       1kB time=00:00:00.62 bitrate=   9.4kbits/s speed=0.383x    frame=   70 fps= 33 q=41.0 size=       1kB time=00:00:00.94 bitrate=   6.2kbits/s speed=0.437x    frame=   86 fps= 32 q=41.0 size=       1kB time=00:00:01.26 bitrate=   4.7kbits/s speed=0.465x    frame=  102 fps= 31 q=40.0 size=       1kB time=00:00:01.58 bitrate=   3.7kbits/s speed=0.488x    frame=  118 fps= 31 q=40.0 size=       1kB time=00:00:01.90 bitrate=   3.1kbits/s speed=0.503x    frame=  134 fps= 31 q=40.0 size=       1kB time=00:00:02.22 bitrate=   2.6kbits/s speed=0.515x    frame=  150 fps= 31 q=40.0 size=       1kB time=00:00:02.54 bitrate=   2.3kbits/s speed=0.524x    frame=  166 fps= 31 q=39.0 size=       1kB time=00:00:02.86 bitrate=   2.0kbits/s speed=0.531x    frame=  182 fps= 31 q=39.0 size=       1kB time=00:00:03.18 bitrate=   1.8kbits/s speed=0.537x    frame=  198 fps= 31 q=39.0 size=       1kB time=00:00:03.50 bitrate=   1.7kbits/s speed=0.542x    frame=  214 fps= 30 q=39.0 size=       1kB time=00:00:03.82 bitrate=   1.5kbits/s speed=0.544x    frame=  230 fps= 30 q=39.0 size=       1kB time=00:00:04.14 bitrate=   1.4kbits/s speed=0.547x    frame=  236 fps= 29 q=40.0 size=       1kB time=00:00:04.26 bitrate=   1.4kbits/s speed=0.525x    frame=  244 fps= 28 q=40.0 size=       1kB time=00:00:04.42 bitrate=   1.3kbits/s speed=0.513x    frame=  252 fps= 28 q=40.0 size=       1kB time=00:00:04.58 bitrate=   1.3kbits/s speed=0.502x    frame=  260 fps= 27 q=40.0 size=       1kB time=00:00:04.74 bitrate=   1.2kbits/s speed=0.492x    frame=  271 fps= 27 q=41.0 size=    1398kB time=00:00:04.96 bitrate=2307.7kbits/s speed=0.487x    frame=  287 fps= 27 q=40.0 size=    1398kB time=00:00:05.28 bitrate=2167.9kbits/s speed=0.493x    frame=  303 fps= 27 q=40.0 size=    1398kB time=00:00:05.60 bitrate=2044.0kbits/s speed=0.498x    frame=  319 fps= 27 q=40.0 size=    1398kB time=00:00:05.92 bitrate=1933.6kbits/s speed=0.502x    frame=  335 fps= 27 q=40.0 size=    1398kB time=00:00:06.24 bitrate=1834.4kbits/s speed=0.506x    frame=  351 fps= 27 q=40.0 size=    1398kB time=00:00:06.56 bitrate=1745.0kbits/s speed=0.51x    frame=  367 fps= 27 q=40.0 size=    1398kB time=00:00:06.88 bitrate=1663.8kbits/s speed=0.514x    frame=  383 fps= 27 q=40.0 size=    1398kB time=00:00:07.20 bitrate=1589.9kbits/s speed=0.516x    frame=  399 fps= 27 q=40.0 size=    1398kB time=00:00:07.52 bitrate=1522.2kbits/s speed=0.518x    frame=  415 fps= 28 q=40.0 size=    1398kB time=00:00:07.84 bitrate=1460.1kbits/s speed=0.52x    frame=  431 fps= 28 q=40.0 size=    1398kB time=00:00:08.16 bitrate=1402.8kbits/s speed=0.523x    frame=  447 fps= 28 q=40.0 size=    1398kB time=00:00:08.48 bitrate=1349.9kbits/s speed=0.525x    frame=  463 fps= 28 q=40.0 size=    1398kB time=00:00:08.80 bitrate=1300.8kbits/s speed=0.527x    frame=  474 fps= 27 q=40.0 size=    1398kB time=00:00:09.02 bitrate=1269.1kbits/s speed=0.522x    frame=  481 fps= 27 q=40.0 size=    1398kB time=00:00:09.16 bitrate=1249.7kbits/s speed=0.515x    frame=  489 fps= 27 q=40.0 size=    1398kB time=00:00:09.32 bitrate=1228.3kbits/s speed=0.51x    frame=  497 fps= 26 q=41.0 size=    1398kB time=00:00:09.48 bitrate=1207.5kbits/s speed=0.504x    frame=  500 fps= 26 q=-1.0 Lsize=    3107kB time=00:00:09.94 bitrate=2560.5kbits/s speed=0.508x    
video:3103kB audio:0kB subtitle:0kB other streams:0kB global headers:0kB muxing overhead: 0.137315%
bench: utime=56.624s
bench: maxrss=1085112kB
[libx264 @ 0x40fc120] frame I:3     Avg QP:37.84  size: 89627
[libx264 @ 0x40fc120] frame P:183   Avg QP:38.42  size: 10595
[libx264 @ 0x40fc120] frame B:314   Avg QP:40.15  size:  3086
[libx264 @ 0x40fc120] consecutive B-frames: 16.0%  0.8%  0.0% 83.2%
[libx264 @ 0x40fc120] mb I  I16..4: 47.1% 51.4%  1.5%
[libx264 @ 0x40fc120] mb P  I16..4:  1.5%  1.1%  0.0%  P16..4:  9.5%  2.0%  0.3%  0.0%  0.0%    skip:85.6%
[libx264 @ 0x40fc120] mb B  I16..4:  0.1%  0.0%  0.0%  B16..8:  4.3%  0.3%  0.0%  direct: 0.5%  skip:94.7%  L0:36.5% L1:63.2% BI: 0.4%
[libx264 @ 0x40fc120] final ratefactor: 32.51
[libx264 @ 0x40fc120] 8x8 transform intra:44.5% inter:55.5%
[libx264 @ 0x40fc120] coded y,uvDC,uvAC intra: 18.9% 18.9% 2.3% inter: 0.3% 0.6% 0.0%
[libx264 @ 0x40fc120] i16 v,h,dc,p: 46% 41% 10%  3%
[libx264 @ 0x40fc120] i8 v,h,dc,ddl,ddr,vr,hd,vl,hu: 15% 26% 40%  3%  3%  3%  5%  2%  4%
[libx264 @ 0x40fc120] i4 v,h,dc,ddl,ddr,vr,hd,vl,hu: 22% 31% 10%  6%  6%  5%  9%  4%  6%
[libx264 @ 0x40fc120] i8c dc,h,v,p: 81% 10%  9%  1%
[libx264 @ 0x40fc120] Weighted P-Frames: Y:0.5% UV:0.0%
[libx264 @ 0x40fc120] kb/s:2541.35
